<!-- page content -->
<svg version="1.1" width="78px" height="78px" xmlns="http://www.w3.org/2000/svg" xmlns:xlink="http://www.w3.org/1999/xlink">
<title>Logo</title>

<path fill="#00ADEE" id="path1_fill" fill-rule="evenodd" d="M 48.6304 23.6789C 48.6304 24.2572 48.8633 24.7477 49.3293 25.1521C 49.796 25.5565 50.3604 25.7583 51.0265 25.7583C 51.6917 25.7583 52.2585 25.5565 52.7236 25.1521C 53.1896 24.7477 53.4225 24.2572 53.4225 23.6789L 53.4225 4.24014C 53.4225 3.66266 53.1896 3.17213 52.7236 2.76774C 52.2585 2.36254 51.6917 2.16154 51.0265 2.16154C 50.3604 2.16154 49.796 2.36254 49.3293 2.76774C 48.8633 3.17213 48.6304 3.66346 48.6304 4.24014L 48.6304 23.6789ZM 40.5254 22.3341C 40.5254 22.9898 40.7592 23.5489 41.2251 24.0091C 41.6902 24.4686 42.2562 24.6983 42.9223 24.6983C 43.5875 24.6983 44.1527 24.4694 44.6187 24.0091C 45.0846 23.5489 45.3184 22.9906 45.3184 22.3341L 45.3184 11.8215C 45.3184 11.1643 45.0846 10.6059 44.6187 10.1465C 44.1527 9.68629 43.5875 9.45657 42.9223 9.45657C 42.2562 9.45657 41.6902 9.68629 41.2251 10.1465C 40.7584 10.6059 40.5254 11.1659 40.5254 11.8215L 40.5254 22.3341ZM 40.5254 46.293C 40.5254 46.9479 40.7592 47.5078 41.2243 47.968C 41.6894 48.4266 42.2562 48.6572 42.9223 48.6572C 43.5875 48.6572 44.1535 48.4274 44.6187 47.968C 45.0846 47.5086 45.3184 46.9503 45.3184 46.293L 45.3184 28.8004C 45.3184 28.144 45.0846 27.5849 44.6187 27.1254C 44.1535 26.6668 43.5875 26.4371 42.9223 26.4371C 42.2562 26.4371 41.6894 26.6668 41.2243 27.1254C 40.7592 27.5849 40.5254 28.1456 40.5254 28.8004L 40.5254 46.293ZM 40.5254 54.0842C 40.5254 54.7406 40.7584 55.2997 41.2251 55.76C 41.6894 56.2186 42.2562 56.4491 42.9223 56.4491C 43.5867 56.4491 44.1535 56.2186 44.6187 55.76C 45.0846 55.2997 45.3184 54.7406 45.3184 54.0842L 45.3184 52.7138C 45.3184 52.0574 45.0846 51.4991 44.6187 51.0396C 44.1535 50.581 43.5867 50.3497 42.9223 50.3497C 42.2562 50.3497 41.6894 50.581 41.2251 51.0396C 40.7584 51.4991 40.5254 52.0582 40.5254 52.7138L 40.5254 54.0842ZM 40.5254 5.48762C 40.5254 6.14326 40.7584 6.70239 41.2251 7.16262C 41.6894 7.62205 42.2562 7.85176 42.9223 7.85176C 43.5867 7.85176 44.1535 7.62205 44.6187 7.16262C 45.0846 6.70239 45.3184 6.14406 45.3184 5.48762L 45.3184 2.36494C 45.3184 1.7085 45.0846 1.14937 44.6187 0.68994C 44.1535 0.230512 43.5867 0 42.9223 0C 42.2562 0 41.6894 0.230512 41.2251 0.68994C 40.7584 1.14937 40.5254 1.7085 40.5254 2.36494L 40.5254 5.48762ZM 32.4204 26.9811C 32.4204 27.5577 32.6526 28.0491 33.1193 28.4535C 33.5852 28.8579 34.1504 29.0604 34.8165 29.0604C 35.4818 29.0604 36.0478 28.8579 36.5137 28.4535C 36.9796 28.0491 37.2126 27.5577 37.2126 26.9811L 37.2126 23.2761C 37.2126 22.6986 36.9796 22.2065 36.5137 21.8021C 36.0478 21.3985 35.4818 21.1959 34.8165 21.1959C 34.1504 21.1959 33.5852 21.3993 33.1193 21.8021C 32.6526 22.2065 32.4204 22.6986 32.4204 23.2761L 32.4204 26.9811ZM 32.4204 50.0498C 32.4204 50.6265 32.6542 51.1178 33.1193 51.523C 33.5844 51.9258 34.1504 52.1284 34.8165 52.1284C 35.4818 52.1284 36.0478 51.9258 36.5137 51.523C 36.9796 51.1178 37.2126 50.6273 37.2126 50.0498L 37.2126 32.9831C 37.2126 32.4049 36.9796 31.9143 36.5137 31.5099C 36.0478 31.1063 35.4818 30.903 34.8165 30.903C 34.1504 30.903 33.5844 31.1063 33.1193 31.5099C 32.6542 31.9143 32.4204 32.4057 32.4204 32.9831L 32.4204 50.0498ZM 32.4204 17.2732C 32.4204 17.8515 32.6526 18.342 33.1193 18.7464C 33.5852 19.1508 34.1504 19.3526 34.8165 19.3526C 35.4818 19.3526 36.0478 19.1508 36.5137 18.7464C 36.9796 18.342 37.2126 17.8515 37.2126 17.2732L 37.2126 2.5468C 37.2126 1.96853 36.9796 1.47879 36.5137 1.0744C 36.0478 0.670002 35.4818 0.467407 34.8165 0.467407C 34.1504 0.467407 33.5852 0.670002 33.1193 1.0744C 32.6526 1.47879 32.4204 1.96853 32.4204 2.5468L 32.4204 17.2732ZM 56.7349 14.9984C 56.7349 15.5759 56.967 16.0672 57.433 16.4708C 57.8989 16.8752 58.4649 17.077 59.1301 17.077C 59.7962 17.077 60.3614 16.8752 60.8281 16.4708C 61.2933 16.0672 61.5262 15.5759 61.5262 14.9984L 61.5262 7.78476C 61.5262 7.20649 61.2933 6.71595 60.8281 6.31156C 60.3614 5.90717 59.7962 5.70537 59.1301 5.70537C 58.4649 5.70537 57.8989 5.90717 57.433 6.31156C 56.967 6.71595 56.7349 7.20649 56.7349 7.78476L 56.7349 14.9984ZM 56.7349 45.0017C 56.7349 45.5799 56.967 46.0713 57.433 46.4757C 57.8989 46.8801 58.4649 47.0819 59.1301 47.0819C 59.7962 47.0819 60.3614 46.8801 60.8281 46.4757C 61.2933 46.0713 61.5262 45.5799 61.5262 45.0017L 61.5262 21.0005C 61.5262 20.4222 61.2933 19.9317 60.8281 19.5273C 60.3614 19.1237 59.7962 18.9211 59.1301 18.9211C 58.4649 18.9211 57.8989 19.1237 57.433 19.5273C 56.967 19.9317 56.7349 20.423 56.7349 21.0005L 56.7349 45.0017ZM 64.8389 50.0434C 64.8389 50.6193 65.0726 51.1122 65.5378 51.5158C 66.0037 51.9194 66.5697 52.122 67.2349 52.122C 67.901 52.122 68.4662 51.9194 68.9321 51.5158C 69.3981 51.1122 69.6318 50.6201 69.6318 50.0434L 69.6318 46.4358C 69.6318 45.8583 69.3981 45.367 68.9321 44.9634C 68.4662 44.5598 67.901 44.3572 67.2349 44.3572C 66.5697 44.3572 66.0037 44.5598 65.5378 44.9634C 65.0726 45.367 64.8389 45.8591 64.8389 46.4358L 64.8389 50.0434ZM 64.8389 39.4088C 64.8389 39.9846 65.0726 40.4776 65.5378 40.8804C 66.0029 41.284 66.5697 41.4874 67.2349 41.4874C 67.9002 41.4874 68.4662 41.2848 68.9321 40.8804C 69.3981 40.4776 69.6318 39.9854 69.6318 39.4088L 69.6318 15.8854C 69.6318 15.3079 69.3981 14.8158 68.9321 14.4122C 68.4662 14.0086 67.9002 13.806 67.2349 13.806C 66.5697 13.806 66.0029 14.0086 65.5378 14.4122C 65.0726 14.8158 64.8389 15.3087 64.8389 15.8854L 64.8389 39.4088ZM 24.3145 37.7066C 24.3145 38.3615 24.5482 38.9214 25.0141 39.3816C 25.4801 39.8411 26.0453 40.0716 26.7113 40.0716C 27.3774 40.0716 27.9426 39.8419 28.4085 39.3816C 28.8745 38.9214 29.1074 38.3639 29.1074 37.7066L 29.1074 15.0702C 29.1074 14.4138 28.8745 13.8554 28.4085 13.3952C 27.9426 12.9358 27.3774 12.7061 26.7113 12.7061C 26.0453 12.7061 25.4793 12.9366 25.0141 13.3952C 24.5482 13.8554 24.3145 14.4146 24.3145 15.0702L 24.3145 37.7066ZM 16.21 44.6475C 16.21 45.3032 16.4437 45.8623 16.9097 46.3225C 17.3748 46.7828 17.9408 47.0117 18.6068 47.0117C 19.2721 47.0117 19.8381 46.7828 20.304 46.3225C 20.7692 45.8623 21.0029 45.304 21.0029 44.6475L 21.0029 28.8004C 21.0029 28.144 20.77 27.5857 20.304 27.1254C 19.8389 26.666 19.2721 26.4371 18.6068 26.4371C 17.9408 26.4371 17.3748 26.6668 16.9097 27.1254C 16.4437 27.5857 16.21 28.1448 16.21 28.8004L 16.21 44.6475ZM 8.10498 30.556C 8.10498 31.2124 8.33794 31.7716 8.80467 32.231C 9.2698 32.6904 9.8358 32.9201 10.5019 32.9201C 11.1671 32.9201 11.7323 32.6904 12.1991 32.231C 12.6642 31.7716 12.8979 31.2132 12.8979 30.556L 12.8979 16.0034C 12.8979 15.3478 12.6642 14.7887 12.1991 14.3292C 11.7323 13.8698 11.1671 13.6401 10.5019 13.6401C 9.8358 13.6401 9.2698 13.8698 8.80467 14.3292C 8.33794 14.7887 8.10498 15.3486 8.10498 16.0034L 8.10498 30.556ZM 24.3145 49.7635C 24.3145 50.4175 24.549 50.979 25.0141 51.4385C 25.4801 51.8979 26.0453 52.1284 26.7113 52.1284C 27.3774 52.1284 27.9426 51.8987 28.4085 51.4385C 28.8745 50.979 29.1074 50.4199 29.1074 49.7635L 29.1074 43.9871C 29.1074 43.3307 28.8745 42.7715 28.4085 42.3121C 27.9426 41.8527 27.3774 41.623 26.7113 41.623C 26.0453 41.623 25.4801 41.8527 25.0141 42.3121C 24.549 42.7715 24.3145 43.3331 24.3145 43.9871L 24.3145 49.7635ZM 24.3145 8.6438C 24.3145 9.29864 24.5482 9.85937 25.0141 10.3188C 25.4801 10.7782 26.0453 11.0087 26.7113 11.0087C 27.3774 11.0087 27.9426 10.7782 28.4085 10.3188C 28.8745 9.85857 29.1074 9.30104 29.1074 8.6438L 29.1074 4.11253C 29.1074 3.45608 28.8745 2.89775 28.4085 2.43832C 27.9426 1.9781 27.3774 1.74838 26.7113 1.74838C 26.0453 1.74838 25.4801 1.9781 25.0141 2.43832C 24.5482 2.89775 24.3145 3.45768 24.3145 4.11253L 24.3145 8.6438ZM 16.21 22.0605C 16.21 22.7162 16.4437 23.2753 16.9097 23.7355C 17.3748 24.1942 17.9408 24.4255 18.6068 24.4255C 19.2721 24.4255 19.8381 24.195 20.304 23.7355C 20.77 23.2753 21.0029 22.7178 21.0029 22.0605L 21.0029 8.34708C 21.0029 7.69064 20.77 7.13231 20.304 6.67208C 19.8381 6.21265 19.2721 5.98294 18.6068 5.98294C 17.9408 5.98294 17.3748 6.21345 16.9097 6.67208C 16.4437 7.13231 16.21 7.69144 16.21 8.34708L 16.21 22.0605ZM 48.6304 33.3867C 48.6304 33.9642 48.8641 34.4555 49.3293 34.8599C 49.796 35.2635 50.3604 35.4653 51.0265 35.4653C 51.6917 35.4653 52.2585 35.2635 52.7236 34.8599C 53.1896 34.4555 53.4225 33.9642 53.4225 33.3867L 53.4225 29.6818C 53.4225 29.1035 53.1896 28.613 52.7236 28.2086C 52.2585 27.8042 51.6917 27.6024 51.0265 27.6024C 50.3604 27.6024 49.796 27.8042 49.3293 28.2086C 48.8641 28.613 48.6304 29.1035 48.6304 29.6818L 48.6304 33.3867ZM 72.9438 25.2351L 72.9438 40.5637C 72.9438 41.142 73.1768 41.6317 73.6427 42.0361C 74.1087 42.4397 74.6747 42.6423 75.3399 42.6423C 76.0052 42.6423 76.5712 42.4397 77.0371 42.0361C 77.503 41.6317 77.7368 41.142 77.7368 40.5637L 77.7368 25.2351C 77.7368 24.6576 77.503 24.1663 77.0371 23.7619C 76.5712 23.3583 76.0052 23.1557 75.3399 23.1557C 74.6747 23.1557 74.1087 23.3583 73.6427 23.7619C 73.1768 24.1663 72.9438 24.6576 72.9438 25.2351L 72.9438 25.2351ZM 8.10498 42.1653C 8.10498 42.821 8.33874 43.3809 8.80467 43.8403C 9.2698 44.3006 9.8358 44.5303 10.5019 44.5303C 11.1671 44.5303 11.7331 44.3006 12.1991 43.8403C 12.6642 43.3809 12.8971 42.8226 12.8971 42.1653L 12.8971 37.0765C 12.8971 36.4201 12.665 35.861 12.1991 35.4015C 11.7331 34.9413 11.1671 34.7124 10.5019 34.7124C 9.8358 34.7124 9.269 34.9429 8.80467 35.4015C 8.33955 35.861 8.10498 36.4209 8.10498 37.0765L 8.10498 42.1653ZM 0 36.8013C 0 37.457 0.233764 38.0177 0.69889 38.4771C 1.16402 38.9366 1.73081 39.1663 2.39688 39.1663C 3.06215 39.1663 3.62815 38.9374 4.09327 38.4771C 4.5592 38.0185 4.79296 37.4594 4.79296 36.8013L 4.79296 24.8714C 4.79296 24.2149 4.5592 23.6558 4.09327 23.1964C 3.62815 22.7369 3.06215 22.5072 2.39688 22.5072C 1.73081 22.5072 1.16402 22.7369 0.69889 23.1964C 0.233764 23.6558 0 24.2157 0 24.8714L 0 36.8013ZM 57.433 49.1884C 56.9686 49.5928 56.7349 50.0841 56.7349 50.6616L 56.7349 54.3705C 56.7349 54.9464 56.9686 55.4385 57.433 55.8421C 57.8989 56.2465 58.4649 56.4491 59.1309 56.4491C 59.7962 56.4491 60.3622 56.2465 60.8281 55.8421C 61.2933 55.4385 61.527 54.9472 61.527 54.3705L 61.527 50.6616C 61.527 50.0833 61.2933 49.5928 60.8281 49.1884C 60.3622 48.7856 59.7962 48.583 59.1309 48.583C 58.4649 48.583 57.8989 48.7856 57.433 49.1884L 57.433 49.1884ZM 48.6304 63.4929C 48.6304 64.0696 48.8641 64.5617 49.3293 64.9661C 49.7944 65.3697 50.3604 65.5723 51.0265 65.5723C 51.6917 65.5723 52.2585 65.3697 52.7236 64.9661C 53.1888 64.5617 53.4225 64.0711 53.4225 63.4929L 53.4225 39.388C 53.4225 38.8106 53.1888 38.3192 52.7236 37.9156C 52.2585 37.512 51.6917 37.3094 51.0265 37.3094C 50.3604 37.3094 49.7944 37.512 49.3293 37.9156C 48.8641 38.3192 48.6304 38.8121 48.6304 39.388L 48.6304 63.4929Z"/>
</svg>